<?xml version="1.0" encoding="UTF-8"?>
<svg xmlns="http://www.w3.org/2000/svg" version="1.1" viewBox="0 0 1920 1080">
  <defs>
    <style>
      .cls-1 {
        fill: #62826a;
      }
    </style>
  </defs>
  <!-- Generator: Adobe Illustrator 28.7.10, SVG Export Plug-In . SVG Version: 1.2.0 Build 236)  -->
  <g>
    <g id="Calque_1">
      <g>
        <g>
          <path class="cls-1" d="M264.91,590.11c17.05-35.04,33.19-68.17,49.29-101.34,10.51-21.66,21.29-43.14,32.9-64.07,36.01-64.93,91.04-85.77,154.06-57.64,16.22,7.24,31.92,16,47.97,23.76,12.73,6.15,25.92,8.42,39.46,3.76,9.4-3.24,16.97-9.48,22.35-18.97,1.18-2.08,2.43-4.46,5.03-2.5,2.89,2.18.49,4.39-.45,6.18-9.73,18.41-24.5,27.7-42.88,30.1-18.68,2.44-35.69-3.77-52.06-13.33-15.78-9.21-31.2-19.27-48.1-25.83-17.2-6.67-34.6-8.99-52.37-3.72-38.97,11.54-60.5,48.2-56.97,99.09,2.96,42.73,6.85,85.4,11.04,128.01,3.64,37.04,5.77,74.31,12.06,110.97.92,5.33-.53,7.13-5.02,6.48-.6-.09-1.22-.02-1.84-.01-14.29.25-13.8.2-15.23-16.2-4.91-56.54-10.29-113.02-15.28-169.54-2.14-24.26-5.28-48.46-4.65-72.96.04-1.57.62-3.46-1.07-4.65-2.52.57-2.95,3.27-3.92,5.25-21.99,45.09-43.81,90.29-65.99,135.27-3.33,6.75-3.76,12.16-.72,19.3,9.84,23.09,17.31,46.99,14.35,73.41-2.15,19.18-12.49,31.77-26.3,32.08-11.25.26-19.32-6.15-22.8-18.52-4.12-14.61-2.11-28.98,2.03-43.1,3.01-10.26,6.86-20.16,11.63-29.52,2.18-4.28,2.56-8.17.51-12.72-22.93-50.81-45.77-101.68-68.66-152.52-.65-1.44-1.07-3.34-4.1-3.44-1.49,15.99-2.81,32.08-4.51,48.13-5.08,48.09-7.52,96.54-14.66,144.34-2.37,15.85-6.35,31.24-14.29,44.9-11.28,19.42-30.49,27.88-48.63,21.03-3.34-1.26-8.96-1.67-6.15-8.66,1.9-4.73,2.75-10.08,10.29-6.74,17.52,7.77,34.83-2.15,44.32-23.78,9.11-20.77,10.76-43.42,12.83-65.95,4.62-50.26,9.04-100.55,13.76-150.8,2.09-22.29-6.95-36.63-26.76-41.77-2.31-.6-6.72,1.32-6.43-3.4.26-4.2,4.37-2.64,6.87-2.81,23.28-1.59,40.24,10.06,51.14,32.99,10.77,22.67,20.91,45.72,31.31,68.62,11.93,26.26,23.83,52.54,36.66,80.81ZM257.49,622.91c-9.37,22.87-18.15,42.56-14.71,65.67,1.6,10.79,8.69,17.53,16.94,16.9,7.79-.6,12.14-6.69,12.91-18.37,1.48-22.42-6.78-41.76-15.13-64.2Z"/>
          <path class="cls-1" d="M572.83,671.32c-2.84-1.17-3.44,1.79-4.26,4.05-6.49,17.87-19.33,25.15-35.23,27.36-6.58.91-13.16,1.37-19.75,1.58v-.06c-23.37,0-46.73.02-70.09.02-9.85,0-9.85-.08-4.83-9.91.31-.6.61-1.21.93-1.8,33.94-62.98,67.89-125.95,101.8-188.95,7.29-13.55,14.41-27.22,22.21-41.95-3.1-.26-4.82-.52-6.54-.52-34.92-.02-69.84,0-104.76,0q-29.34,0-34.14,32.62c-.05.34-.18.69-.17,1.03.06,2.21-1.8,5.17,1.07,6.36,2.84,1.17,3.44-1.79,4.26-4.05,6.49-17.87,19.33-25.15,35.23-27.36,23.2-3.23,46.52-.79,69.76-1.91,7.51-.36,8.88,2,4.33,8.84-1.47,2.21-2.61,4.71-3.9,7.09-39.06,72.47-78.09,144.96-117.23,217.37-3.48,6.43-5.16,10.24,4.17,10.21,14.87-.06,29.74-.06,44.61-.09v.09c26.43,0,52.86,0,79.29,0q29.34,0,34.14-32.62c.05-.34.18-.69.17-1.03-.06-2.21,1.8-5.17-1.07-6.36Z"/>
          <circle class="cls-1" cx="562.87" cy="313.61" r="44.37"/>
          <g>
            <path class="cls-1" d="M203.66,375.43h0c-20.95-31.48-25.38-71.47-10.7-106.31,27.14-64.44,90.94-109.79,165.13-109.79,79.85,0,147.63,52.54,170.66,124.85h10.48c-23.5-78.35-96.51-135.51-182.56-134.88-104.31.77-187.69,87.37-187.69,191.68v34.45h34.68Z"/>
            <path class="cls-1" d="M511.76,755.15c-6.95,92.43-59.49,165.52-153.67,165.52s-178.07-79.38-179.03-177.3h-10.03c.96,103.45,85.38,187.33,189.06,187.33s181.59-77.59,188.56-175.55h-34.9Z"/>
          </g>
        </g>
        <g>
          <path class="cls-1" d="M834.84,464.91l66.19-162.12h33.1v3.62c-11.63,0-15.77,5.95-15.77,26.38v124.89c0,20.43,4.14,26.38,15.77,26.38v3.62h-48.61v-3.62c10.6,0,15-5.17,15.51-21.46v-140.92l-62.32,152.56v.26l-5.17,13.19h-8.01l-64.64-154.37v132.65c1.03,13.71,5.43,18.1,15.26,18.1v3.62h-38.27v-3.62c11.64,0,15.77-5.95,15.77-26.38v-139.63c-4.14-6.46-9.31-11.64-16.03-11.64v-3.62h29.22l68,162.12Z"/>
          <path class="cls-1" d="M1000.85,459.48c.26-.78.52-1.29.52-1.81v.26l48.87-139.63,5.43-15.51.26-.52,1.04.52h5.69l60.25,154.88.26.78,3.88,9.83c3.62,7.5,9.31,15.77,16.55,15.77v3.62h-48.35v-3.62c10.86,0,16.55-4.4,10.86-22.24l-16.03-41.11h-68.01l-12.93,36.98-.26.52-1.29,3.62c-5.69,17.84,0,22.24,10.6,22.24v3.62h-37.49v-3.62c9.05,0,15.77-12.67,18.87-21.2l1.29-3.36ZM1054.37,328.64l-29.74,84.81h62.57l-32.84-84.81Z"/>
          <path class="cls-1" d="M1222.97,457.66c0,20.43,4.14,26.38,15.51,26.38v3.62h-48.35v-3.62c10.6,0,15-5.17,15.51-21.46v-134.72c-.51-16.29-4.91-21.46-15.51-21.46v-3.62h48.35v3.62c-11.38,0-15.51,5.95-15.51,26.38v124.89Z"/>
          <path class="cls-1" d="M1390.52,406.99c46.02,40.34-18.1,113.51-90.76,69.81l-8.02-.26v-32.32h3.88c0,44.99,94.12,55.85,94.12,0,0-30.51-60.5-36.2-84.55-57.14-43.96-38.79,16.81-114.29,81.71-69.55l7.76.26v32.32h-3.62c0-47.83-85.07-52.75-85.07,0,0,29.99,60.51,35.94,84.55,56.89Z"/>
          <path class="cls-1" d="M1534.03,304.33c50.68,0,91.53,41.63,91.53,92.83s-40.85,93.09-91.53,93.09-91.79-41.63-91.79-93.09,41.11-92.83,91.79-92.83ZM1534.03,311.31c-39.82,0-72.14,38.53-72.14,85.85s32.32,86.1,72.14,86.1,72.14-38.53,72.14-86.1-32.32-85.85-72.14-85.85Z"/>
          <path class="cls-1" d="M1661.76,302.78h30l115.58,155.92v-125.92c0-20.43-4.14-26.38-15.77-26.38v-3.62h38.27v3.62c-9.82,0-14.22,4.4-15.26,18.1v163.16h-7.24l-122.56-165.23v143.51c1.29,13.71,5.69,18.1,15.26,18.1v3.62h-38.01v-3.62c11.38,0,15.52-5.95,15.52-26.38v-139.63c-3.88-6.46-9.05-11.64-15.77-11.64v-3.62Z"/>
          <path class="cls-1" d="M763.21,766.28h83.26c20.43,0,26.38-10.86,26.38-22.24h3.62v29.48h-138.85l119.72-177.64h-62.57c-20.43,0-26.38,10.86-26.38,22.24h-3.62v-29.48h118.42l-119.98,177.64Z"/>
          <path class="cls-1" d="M1076.35,715.59c0,33.36-29.22,60.51-65.42,60.51s-65.67-27.15-65.67-60.51v-99.29c-.52-16.29-4.91-21.46-15.52-21.46v-3.62h48.35v3.62c-11.38,0-15.52,5.95-15.52,26.38v94.38c0,27.93,23.79,50.68,53.26,50.68s53.27-22.76,53.27-50.68v-94.38c0-20.43-4.14-26.38-15.51-26.38v-3.62h38.01v3.62c-9.57,0-13.96,4.4-15.26,18.1v102.65Z"/>
          <path class="cls-1" d="M1138.16,588.64h84.81c26.12,0,47.58,21.46,47.58,47.58,0,30.51-24.83,55.33-55.34,55.33h-.26l38.53,52.23v-.26l.26.26,6.72,9.31c11.38,12.67,24.3,16.81,33.61,16.81v3.62h-21.98c-12.93,0-18.36-.78-23.27-7.24l-55.34-74.73h-22.49v51.97c0,20.43,4.14,26.38,15.52,26.38v3.62h-48.35v-3.62c10.6,0,15-5.17,15.51-21.46v-134.72c-.52-16.29-4.91-21.46-15.51-21.46v-3.62ZM1170.99,683.53h37.75c23.53-1.55,42.67-21.98,42.67-46.8,0-21.98-17.58-40.08-39.05-40.08h-41.37v86.88Z"/>
          <path class="cls-1" d="M1363.12,743.52c0,20.43,4.14,26.38,15.52,26.38v3.62h-48.35v-3.62c10.6,0,15-5.17,15.51-21.46v-134.72c-.52-16.29-4.91-21.46-15.51-21.46v-3.62h48.35v3.62c-11.38,0-15.52,5.95-15.52,26.38v124.89Z"/>
        </g>
        <g>
          <path class="cls-1" d="M1478.72,645.7v4.35h-35.06v-60.9h34.63v4.35h-30.02v23.67h27.84v4.35h-27.84v24.19h30.45Z"/>
          <path class="cls-1" d="M1486.37,636.65l4-2.35c2.09,7.31,8.27,12.27,18.27,12.27s15.31-5.22,15.31-12.18c0-7.31-6.44-10.09-15.75-13.05-10.18-3.31-19.32-6.18-19.32-16.79,0-10.01,8.09-16.36,18.45-16.36s16.62,5.74,19.58,12.79l-3.91,2.17c-2.26-5.48-6.96-10.53-15.66-10.53s-13.75,4.96-13.75,11.75c0,7.31,6.18,9.57,14.88,12.44,10.79,3.57,20.18,6.96,20.18,17.49s-7.92,16.71-20.01,16.71c-11.4,0-19.49-5.74-22.27-14.36Z"/>
          <path class="cls-1" d="M1534.12,636.65l4-2.35c2.09,7.31,8.27,12.27,18.27,12.27s15.31-5.22,15.31-12.18c0-7.31-6.44-10.09-15.75-13.05-10.18-3.31-19.32-6.18-19.32-16.79,0-10.01,8.09-16.36,18.45-16.36s16.62,5.74,19.58,12.79l-3.91,2.17c-2.26-5.48-6.96-10.53-15.66-10.53s-13.75,4.96-13.75,11.75c0,7.31,6.18,9.57,14.88,12.44,10.79,3.57,20.18,6.96,20.18,17.49s-7.92,16.71-20.01,16.71c-11.4,0-19.49-5.74-22.27-14.36Z"/>
          <path class="cls-1" d="M1622.34,645.7v4.35h-35.06v-60.9h34.63v4.35h-30.02v23.67h27.84v4.35h-27.84v24.19h30.45Z"/>
          <path class="cls-1" d="M1678.27,589.15v60.9h-4.09l-35.94-52.38v52.38h-4.61v-60.9h4l36.02,52.38v-52.38h4.61Z"/>
          <path class="cls-1" d="M1689.92,619.6c0-17.4,13.14-31.41,31.67-31.41,11.22,0,21.06,5.74,26.1,14.62l-4.09,2.35c-4-7.48-12.44-12.53-22.01-12.53-16.01,0-27.06,12.01-27.06,26.97s11.05,26.97,27.06,26.97c9.66,0,18.18-5.13,22.19-12.79l4.09,2.35c-4.96,8.96-14.88,14.88-26.28,14.88-18.53,0-31.67-14.01-31.67-31.41Z"/>
          <path class="cls-1" d="M1793.79,645.7v4.35h-35.06v-60.9h34.63v4.35h-30.02v23.67h27.84v4.35h-27.84v24.19h30.45Z"/>
          <path class="cls-1" d="M1495.25,723.98c0,16.79-11.92,30.45-28.71,30.45h-22.88v-60.9h22.88c16.79,0,28.71,13.66,28.71,30.45ZM1490.73,723.98c0-14.44-9.83-26.1-24.19-26.1h-18.27v52.2h18.27c14.36,0,24.19-11.66,24.19-26.1Z"/>
          <path class="cls-1" d="M1505.59,734.08v-40.54h4.61v40.54c0,9.92,6.18,16.88,17.66,16.88s17.75-6.96,17.75-16.88v-40.54h4.61v40.54c0,12.88-8.96,21.32-22.36,21.32s-22.27-8.44-22.27-21.32Z"/>
          <path class="cls-1" d="M1584.06,741.04l4-2.35c2.09,7.31,8.27,12.27,18.27,12.27s15.31-5.22,15.31-12.18c0-7.31-6.44-10.09-15.75-13.05-10.18-3.31-19.32-6.18-19.32-16.79,0-10.01,8.09-16.36,18.45-16.36s16.62,5.74,19.58,12.79l-3.91,2.17c-2.26-5.48-6.96-10.53-15.66-10.53s-13.75,4.96-13.75,11.75c0,7.31,6.18,9.57,14.88,12.44,10.79,3.57,20.18,6.96,20.18,17.49s-7.92,16.71-20.01,16.71c-11.4,0-19.49-5.74-22.27-14.36Z"/>
          <path class="cls-1" d="M1672.88,697.88h-19.14v56.55h-4.7v-56.55h-19.14v-4.35h42.98v4.35Z"/>
          <path class="cls-1" d="M1702.54,729.38v25.06h-4.61v-25.06l-22.19-35.85h5.22l19.32,31.41,19.23-31.41h5.22l-22.19,35.85Z"/>
          <path class="cls-1" d="M1766.48,750.09v4.35h-33.32v-60.9h4.61v56.55h28.71Z"/>
          <path class="cls-1" d="M1811.1,750.09v4.35h-35.06v-60.9h34.63v4.35h-30.02v23.67h27.84v4.35h-27.84v24.19h30.45Z"/>
        </g>
      </g>
    </g>
  </g>
</svg>